<?xml version="1.0" encoding="utf-8"?>
<!-- Generator: Adobe Illustrator 21.0.0, SVG Export Plug-In . SVG Version: 6.00 Build 0)  -->
<svg version="1.1" id="Layer_1" xmlns="http://www.w3.org/2000/svg" xmlns:xlink="http://www.w3.org/1999/xlink" x="0px" y="0px"
	 viewBox="0 0 1920 456.173" style="enable-background:new 0 0 1920 456.173;" xml:space="preserve">
<style type="text/css">
	.st0{opacity:0.5;fill-rule:evenodd;clip-rule:evenodd;fill:#05386B;}
	.st1{opacity:0.7;fill-rule:evenodd;clip-rule:evenodd;fill:#05386B;}
	.st2{fill-rule:evenodd;clip-rule:evenodd;fill:#023D93;}
</style>
<path class="st0" d="M1114.484,458.762h13.736v1.991h-43.882v-0.361h-2.391V175.87h20.145l1.273-32.27l0.891,23.067h3.603
	l2.889,9.204h3.736V458.762L1114.484,458.762z M1475.003,167.392l1.431-84.407l1.417,84.407h7.213v39.511h2.697v253.489h-2.697
	h-7.181h-30.51h-2.694h-6.737V247.756h6.737v-40.854h2.694v-39.511h10.552l1.446-65.539l1.443,65.539H1475.003L1475.003,167.392z
	 M1334.239,234.283h39.929v226.109h-39.929V234.283L1334.239,234.283z M1247.158,277.823h32.53v182.569h-32.53V277.823
	L1247.158,277.823z M1172.622,215.88h32.562v244.512h-32.562V215.88L1172.622,215.88z M985.67,318.947h28.187v141.445H985.67
	V318.947L985.67,318.947z M811.111,380.608h9.394v-43.23h20.052v-10.015v-57.616h28.173v57.616h16.294v133.028H868.73h-3.751h-9.391
	h-15.031h-20.052h-9.394V380.608L811.111,380.608z M772.908,286.659h32.566v173.734h-32.566V286.659L772.908,286.659z
	 M732.207,333.631h20.657v33.186v93.575h-20.657h-34.448h-26.936v-93.575v-42.584h26.936v42.584h34.448V333.631L732.207,333.631z
	 M595.669,316.718h52.603v143.674h-52.603V316.718L595.669,316.718z M537.426,249.7h49.476v210.692h-49.476V249.7L537.426,249.7z
	 M464.151,229.66h35.703v230.733h-35.703V229.66L464.151,229.66z M332.637,294.174h48.841v166.218h-24.415h-24.427h-24.433V348.284
	h24.433V294.174L332.637,294.174z"/>
<path class="st1" d="M1705.44,460.392h23.07h3.527h10.321h2.431h7.227v-25.02h-9.658v-7.26h-10.321v7.26v6.599h-3.527v-23.986
	h-23.07v23.986V460.392L1705.44,460.392z M136.501,310.912h4.519v13.581h-10.177v135.899h10.177h37.514h10.177V324.493h-10.177
	v-13.581h4.53v-4.137h-46.562V310.912L136.501,310.912z M269.569,460.392h49.656V246.151h-49.656V460.392L269.569,460.392z
	 M460.191,290.384v-3.913h-6.278v3.913h-13.236v13.318h-20.759v156.69h3.917h56.317h3.909V317.41h-3.909v-13.708h-19.962V290.384
	L460.191,290.384z M517.407,460.392h49.667V293.525h-49.667V460.392L517.407,460.392z M597.22,460.392h13.686v-99.915H597.22
	v-12.142h-19.901v12.142v99.915H597.22L597.22,460.392z M642.321,460.392h19.889v-88.169h-19.889V460.392L642.321,460.392z
	 M685.392,460.392h19.9v-53.316h-19.9V460.392L685.392,460.392z M708.891,460.392h30.459V257.504h-30.459V460.392L708.891,460.392z
	 M799.718,460.392h30.459v-72.124h-30.459V460.392L799.718,460.392z M880.761,460.392h26.172v-88.947h-26.172V460.392
	L880.761,460.392z M939.108,460.392h59.441V184.147h-59.441V460.392L939.108,460.392z M1088.207,460.392h13.312v-55.675h-13.312
	V188.064h-59.444v272.328h13.308H1088.207L1088.207,460.392z M1309.632,415.324V300.395h-35.999v114.929h-10.725v45.069h50.031
	v-45.069H1309.632L1309.632,415.324z M1380.083,411.508v-26.301h-28.912v26.301h-21.119v48.884h50.031v-26.301V411.508
	L1380.083,411.508z M1383.31,460.392h50.843V314.071h-3.866v-5.514h-2.009l-2.741-2.737l-2.748,2.737h-1.998v5.514h-7.299v-5.514
	h-2.02l-2.741-2.737l-2.741,2.737h-2.008v5.514h-7.296v-5.514h-2.016l-2.741-2.737l-2.745,2.737h-2.016v5.514h-3.859V460.392
	L1383.31,460.392z M1528.373,327.476v-40.583h-36.601v40.583h-17.852v132.916h58.802V327.476H1528.373L1528.373,327.476z
	 M1643.255,429.529v-23.993h-16.701v23.993h-3.743v-17.17h-16.701v17.17h-6.809v22.158h57.136v-22.158H1643.255L1643.255,429.529z"
	/>
<polygon class="st2" points="248.324,155.61 287.752,141.52 295.106,141.52 295.106,165.102 298.099,165.102 298.099,239.238 
	298.099,265.748 298.099,305.156 298.099,315.928 298.099,379.296 298.099,405.799 298.099,455.989 214.773,455.989 
	214.773,315.928 223.14,315.928 223.14,265.748 231.954,265.748 231.954,239.238 245.33,239.238 245.33,165.102 248.324,165.102 
	248.324,155.61 "/>
<polygon class="st2" points="431.64,369.454 455.059,359.976 460.317,350.387 462.738,350.387 467.988,359.976 491.423,369.454 
	491.423,373.136 486.5,373.136 486.5,390.862 630.193,390.862 630.193,397.313 643.515,397.313 643.515,455.989 344.906,455.989 
	344.906,397.313 358.239,397.313 358.239,390.862 365.509,390.862 365.509,295.613 368.73,295.613 368.73,279.121 372.365,279.121 
	372.365,260.166 375.535,260.166 375.535,252.892 378.68,252.892 386.077,239.419 388.482,239.419 395.868,252.892 399.042,252.892 
	399.042,260.166 402.197,260.166 402.197,279.121 405.821,279.121 405.821,295.613 409.056,295.613 409.056,390.862 
	436.552,390.862 436.552,373.136 431.64,373.136 431.64,369.454 "/>
<polygon class="st2" points="651.222,402.683 680.729,402.683 680.729,455.989 651.222,455.989 651.222,402.683 "/>
<polygon class="st2" points="721.853,417.059 758.857,417.059 758.857,436.709 758.857,455.989 721.853,455.989 671.086,455.989 
	671.086,436.709 721.853,436.709 721.853,417.059 "/>
<polygon class="st2" points="758.14,333.131 769.543,312.293 773.453,312.293 784.867,333.131 789.213,333.131 789.213,359.439 
	809.437,359.439 809.437,455.989 733.552,455.989 733.552,359.439 753.787,359.439 753.787,333.131 758.14,333.131 "/>
<polygon class="st2" points="819.301,409.489 851.946,409.489 851.946,455.989 819.301,455.989 819.301,409.489 "/>
<polygon class="st2" points="855.952,392.744 886.556,392.744 886.556,455.989 855.952,455.989 855.952,392.744 "/>
<polygon class="st2" points="1032.813,355.974 1036.578,355.974 1043.748,336.178 1047.91,336.178 1055.075,355.974 
	1058.83,355.974 1058.83,366.352 1060.387,370.64 1065.52,370.64 1065.52,455.989 1026.131,455.989 1026.131,370.64 
	1031.274,370.64 1032.813,366.352 1032.813,355.974 "/>
<polygon class="st2" points="1084.518,430.917 1107.686,430.917 1107.686,455.989 1084.518,455.989 1084.518,430.917 "/>
<polygon class="st2" points="1192.428,75.577 1254.544,75.577 1254.544,79.728 1258.688,79.728 1258.688,84.001 1263.265,84.001 
	1263.265,88.982 1270.279,88.982 1270.279,419.915 1275.498,419.915 1275.498,437.344 1275.498,444.871 1305.358,444.871 
	1305.358,455.989 1275.498,455.989 1270.279,455.989 1251.962,455.989 1192.428,455.989 1130.337,455.989 1093.495,455.989 
	1093.495,437.344 1093.495,404.183 1100.88,404.183 1100.88,209.37 1107.263,209.37 1107.263,198.793 1110.556,198.793 
	1110.556,190.97 1112.153,190.97 1127.243,165.08 1128.97,165.08 1130.308,165.08 1130.308,136.471 1132.458,136.471 
	1132.458,165.171 1147.507,190.97 1149.094,190.97 1149.094,198.793 1152.39,198.793 1152.39,209.37 1158.773,209.37 
	1158.773,437.344 1192.428,437.344 1192.428,93.551 1192.428,89.281 1192.428,88.982 1192.428,85.123 1192.428,84.001 
	1192.428,79.728 1192.428,75.577 "/>
<polygon class="st2" points="1323.7,429.994 1367.024,429.994 1367.024,455.989 1323.7,455.989 1303.696,455.989 1285.227,455.989 
	1285.227,349.727 1289.595,349.727 1289.595,340.314 1312.283,340.314 1312.283,349.727 1323.7,349.727 1323.7,429.994 "/>
<polygon class="st2" points="1426.955,342.677 1527.223,342.677 1527.223,455.989 1426.955,455.989 1426.955,342.677 "/>
<polygon class="st2" points="1602.164,436.89 1608.569,436.89 1608.569,440.608 1624.102,440.608 1624.102,447.016 
	1661.889,447.016 1661.889,289.032 1675.745,289.032 1675.745,282.288 1708.488,282.288 1708.488,289.032 1718.607,289.032 
	1718.607,447.016 1730.421,447.016 1730.421,453.429 1770.929,453.429 1770.929,455.787 1730.421,455.787 1718.607,455.787 
	1661.889,455.787 1638.264,455.787 1602.164,455.787 1597.753,455.787 1574.467,455.787 1534.973,455.787 1534.973,285.32 
	1574.467,285.32 1574.467,302.202 1602.164,302.202 1602.164,436.89 "/>
<polygon class="st2" points="107.242,410.56 210.687,410.56 210.687,455.989 107.242,455.989 107.242,410.56 "/>
<polygon class="st2" points="972.911,383.447 1012.434,383.447 1012.434,390.057 1016.253,390.057 1016.253,455.989 
	972.911,455.989 932.195,455.989 893.102,455.989 883.21,455.989 856.201,455.989 856.201,411.916 883.21,411.916 883.21,255.395 
	900.625,255.395 900.625,147.91 900.625,143.096 909.936,143.096 909.936,77.254 914.863,77.254 916.186,52.06 917.427,77.254 
	923.587,77.254 924.928,26.887 926.198,77.254 935.307,77.254 935.307,76.962 933.259,76.962 934.647,44.959 935.819,73.893 
	942.523,73.893 943.382,68.71 944.695,76.962 942.992,76.962 942.992,77.254 945.344,77.254 945.344,143.096 951.652,143.096 
	951.652,147.91 958.843,147.91 958.843,255.395 972.911,255.395 972.911,383.447 "/>
</svg>
